<?xml version="1.0" encoding="UTF-8" standalone="no"?>
<!-- Created with Inkscape (http://www.inkscape.org/) -->

<svg
   xmlns:dc="http://purl.org/dc/elements/1.1/"
   xmlns:cc="http://creativecommons.org/ns#"
   xmlns:rdf="http://www.w3.org/1999/02/22-rdf-syntax-ns#"
   xmlns:svg="http://www.w3.org/2000/svg"
   xmlns="http://www.w3.org/2000/svg"
   xmlns:sodipodi="http://sodipodi.sourceforge.net/DTD/sodipodi-0.dtd"
   xmlns:inkscape="http://www.inkscape.org/namespaces/inkscape"
   width="144.08426"
   height="66.490227"
   viewBox="0 0 101.4053 46.795267"
   version="1.1"
   id="svg8"
   inkscape:version="0.92.2 5c3e80d, 2017-08-06"
   sodipodi:docname="drawing.svg">
  <defs
     id="defs2" />
  <sodipodi:namedview
     id="base"
     pagecolor="#ffffff"
     bordercolor="#666666"
     borderopacity="1.0"
     inkscape:pageopacity="0.0"
     inkscape:pageshadow="2"
     inkscape:zoom="0.98994949"
     inkscape:cx="313.23837"
     inkscape:cy="-112.59682"
     inkscape:document-units="mm"
     inkscape:current-layer="layer1"
     showgrid="false"
     inkscape:window-width="1280"
     inkscape:window-height="755"
     inkscape:window-x="1294"
     inkscape:window-y="106"
     inkscape:window-maximized="0"
     fit-margin-top="0"
     fit-margin-left="0"
     fit-margin-right="0"
     fit-margin-bottom="0"
     units="px"
     scale-x="2.66"
     viewbox-x="0"
     viewbox-width="109" />
  <metadata
     id="metadata5">
    <rdf:RDF>
      <cc:Work
         rdf:about="">
        <dc:format>image/svg+xml</dc:format>
        <dc:type
           rdf:resource="http://purl.org/dc/dcmitype/StillImage" />
        <dc:title></dc:title>
      </cc:Work>
    </rdf:RDF>
  </metadata>
  <g
     inkscape:label="Layer 1"
     inkscape:groupmode="layer"
     id="layer1"
     transform="translate(-3.915253,-4.4358307)">
    <path
       inkscape:connector-curvature="0"
       id="path3885"
       style="font-style:normal;font-variant:normal;font-weight:normal;font-stretch:normal;font-size:50.79999924px;line-height:1.25;font-family:'Times New Roman';-inkscape-font-specification:'Times New Roman, ';letter-spacing:0px;word-spacing:0px;fill:#000000;fill-opacity:1;stroke:none;stroke-width:0.26458332"
       d="m 35.512852,31.359832 v -8.3312 h 14.1224 c 0.9652,0 1.5748,-0.7112 1.5748,-1.8288 0,-1.1684 -0.6096,-1.828801 -1.5748,-1.828801 h -14.1224 v -8.4836 c 4.1148,-0.7112 8.0772,-1.6256003 11.5824,-2.6924003 0.8128,-0.254 1.3208,-0.9652 1.3208,-1.778 0,-0.254 -0.0508,-0.5588 -0.1524,-0.8128 -0.3048,-0.8636 -0.9144,-1.1684 -1.6256,-1.1684 -0.254,0 -0.508,0.0508 -0.762,0.1524 -7.4676,2.4892 -17.3228,3.9116 -25.552399,4.4196 -0.8636,0.0508 -1.6764,0.6096 -1.6764,1.7272003 0,0.0508 0,0.1524 0,0.2032 0.1016,1.0668 0.7112,1.7272 1.778,1.7272 0.0508,0 0.0508,0 0.1016,0 3.556,-0.254 7.365999,-0.6096 11.226799,-1.1684 v 7.874 H 18.139253 c -0.9652,0 -1.5748,0.711201 -1.5748,1.828801 0,1.1684 0.6096,1.8288 1.5748,1.8288 h 13.614399 v 8.3312 h -7.467599 c -2.9972,0 -4.3688,1.1176 -4.3688,4.0132 v 10.2616 c 0,2.9464 1.3716,4.1148 4.3688,4.1148 h 19.659599 c 2.9972,0 4.318,-1.1684 4.318,-4.1148 v -10.2616 c 0,-2.8956 -1.3208,-4.0132 -4.318,-4.0132 z m -10.312399,14.7828 c -0.9652,0 -1.4224,-0.254 -1.4224,-1.3208 v -8.636 c 0,-1.0668 0.4572,-1.3208 1.4224,-1.3208 h 17.678399 c 1.016,0 1.524,0.254 1.524,1.3208 v 8.636 c 0,1.0668 -0.508,1.3208 -1.524,1.3208 z M 9.452453,5.6042307 c -0.3556,-0.2032 -0.7112,-0.3048 -1.0668,-0.3048 -0.6096,0 -1.27,0.254 -1.6764,0.762 -0.3556,0.4064 -0.508,0.8636 -0.508,1.27 0,0.508 0.254,0.9652 0.6604,1.27 1.9812,1.3716 4.9276,3.6576003 6.604,5.4356003 0.3556,0.4064 0.9144,0.6096 1.4224,0.6096 0.5588,0 1.1176,-0.2032 1.4732,-0.6096 0.3556,-0.3556 0.5588,-0.8128 0.5588,-1.3208 0,-0.508 -0.2032,-1.016 -0.6604,-1.524 -1.7272,-1.8288003 -4.7752,-4.3180003 -6.8072,-5.5880003 z m -2.3368,12.5476003 c -0.3556,-0.2032 -0.7112,-0.3048 -1.0668,-0.3048 -0.6604,0 -1.2192,0.3048 -1.6764,0.8128 -0.3048,0.3556 -0.4572,0.762 -0.4572,1.168401 0,0.508 0.254,1.016 0.6604,1.27 2.1844,1.3716 5.0292,3.9116 6.7056,5.4356 0.4064,0.3556 0.8636,0.508 1.3716,0.508 0.6096,0 1.1684,-0.254 1.5748,-0.6604 0.3556,-0.3556 0.5588,-0.8128 0.5588,-1.3208 0,-0.508 -0.2032,-1.016 -0.762,-1.524 -1.6764,-1.5748 -4.8768,-4.165601 -6.9088,-5.384801 z m 7.3152,14.782801 c -0.3556,-0.1524 -0.6604,-0.2032 -0.9652,-0.2032 -0.7112,0 -1.3208,0.3556 -1.5748,1.016 -1.778,4.2164 -4.6736,9.8552 -7.0612,13.208 -0.4572,0.5588 -0.6604,1.0668 -0.6604,1.5748 0,0.5588 0.3048,1.016 0.8128,1.3716 0.4064,0.254 0.8636,0.4064 1.3208,0.4064 0.6096,0 1.2192,-0.3048 1.6764,-0.9144 2.4892,-3.5052 5.6388,-9.652 7.5692,-14.0208 0.1016,-0.254 0.1524,-0.508 0.1524,-0.762 0,-0.6604 -0.3556,-1.3208 -1.27,-1.6764 z" />
    <path
       inkscape:connector-curvature="0"
       id="path3887"
       style="font-style:normal;font-variant:normal;font-weight:normal;font-stretch:normal;font-size:50.79999924px;line-height:1.25;font-family:'Times New Roman';-inkscape-font-specification:'Times New Roman, ';letter-spacing:0px;word-spacing:0px;fill:#000000;fill-opacity:1;stroke:none;stroke-width:0.26458332"
       d="m 62.648522,8.1018973 v 3.5051997 h 18.3896 V 8.1018973 Z m -1.9812,13.7160007 v 3.556 h 7.0612 c -2.54,9.2456 -4.572,14.8844 -6.096,16.9672 -0.2032,0.1016 -0.4572,0.2032 -0.8128,0.3048 l 0.8636,3.4544 c 6.2992,-1.1176 12.192,-2.6416 17.5768,-4.572 0.508,1.1684 1.016,2.3876 1.524,3.7084 l 3.1496,-1.6256 c -2.1336,-5.1308 -4.4196,-9.8552 -6.858,-14.224 l -3.0988,1.524 c 1.3208,2.3368 2.5908,4.826 3.9116,7.5692 -3.9624,1.4732 -7.9756,2.6416 -11.9888,3.4544 1.524,-3.3528 3.302,-8.8392 5.334,-16.5608 h 11.7348 v -3.556 z M 90.588522,4.6982973 V 14.959897 h -6.858 v 3.556 h 6.858 v 0.609601 c -0.1016,13.6652 -3.3528,23.5712 -9.7028,29.718 l 2.7432,2.3876 c 6.9088,-6.7564 10.4648,-17.4752 10.6172,-32.1056 v -0.609601 h 7.518408 c -0.1016,13.665201 -0.30481,21.844001 -0.60961,24.536401 -0.4064,2.8956 -1.879602,4.3688 -4.368802,4.3688 -1.3716,0 -2.997196,-0.1016 -4.825996,-0.2032 l 0.8128,3.2512 c 2.1336,0.1016 3.606796,0.1524 4.470396,0.1524 4.368812,0 6.858022,-2.0828 7.366022,-6.1976 0.4572,-3.7592 0.71121,-13.5636 0.71121,-29.464001 H 94.246122 V 4.6982973 Z" />
  </g>
</svg>
